<?xml version="1.0" encoding="UTF-8"?>
<svg version="1.1" xmlns="http://www.w3.org/2000/svg" width="894" height="542">
<path d="M0 0 C295.02 0 590.04 0 894 0 C894 178.86 894 357.72 894 542 C598.98 542 303.96 542 0 542 C0 363.14 0 184.28 0 0 Z " fill="#CCEA27" transform="translate(0,0)"/>
<path d="M0 0 C295.02 0 590.04 0 894 0 C894 178.86 894 357.72 894 542 C598.98 542 303.96 542 0 542 C0 363.14 0 184.28 0 0 Z M378 6 C376.007833 6.15781112 374.01564653 6.31537659 372.0234375 6.47265625 C361.16733855 7.37733116 350.42520681 8.85034858 339.67236328 10.57910156 C336.87684846 11.01939642 334.07796751 11.42947861 331.27734375 11.8359375 C314.30715537 14.35065223 297.67682342 18.03666019 281 22 C279.92862793 22.25007813 278.85725586 22.50015625 277.75341797 22.7578125 C208.34593136 38.99713445 137.93363684 68.59678927 84 116 C83.30132812 116.59941406 82.60265625 117.19882813 81.8828125 117.81640625 C79.90129975 119.52248051 77.94744907 121.25511406 76 123 C75.02546875 123.87011719 74.0509375 124.74023438 73.046875 125.63671875 C40.52357768 154.97280148 14.9414777 193.71806447 6 237 C5.77787842 237.9885498 5.77787842 237.9885498 5.55126953 238.99707031 C-1.25306022 269.62754072 2.9556733 303.21987711 15 332 C15.3187207 332.77762695 15.63744141 333.55525391 15.96582031 334.35644531 C22.96500578 351.29265981 32.0766499 366.32035852 43 381 C43.46937988 381.63599121 43.93875977 382.27198242 44.42236328 382.92724609 C57.6545711 400.63662125 74.31647845 417.79941998 92.28222656 430.73974609 C94.22910745 432.16808594 96.12607893 433.65106584 98.0234375 435.14453125 C114.06290557 447.73498831 131.15490744 458.1710716 149 468 C149.88896973 468.49113281 150.77793945 468.98226563 151.69384766 469.48828125 C177.3678112 483.5623108 204.38285361 494.41357074 232 504 C232.85996582 504.2995459 233.71993164 504.5990918 234.60595703 504.90771484 C245.64148608 508.69847403 256.92253258 511.66719148 268.1875 514.6875 C269.25840881 514.97672333 269.25840881 514.97672333 270.35095215 515.27178955 C279.36593111 517.69690347 288.36531631 519.71739608 297.5546875 521.3605957 C300.10878999 521.83460324 302.57853028 522.35534503 305.08203125 523.03125 C311.1834613 524.6480538 317.46415687 525.48591648 323.6875 526.5 C324.97333984 526.71269531 326.25917969 526.92539062 327.58398438 527.14453125 C331.3880483 527.77117341 335.19366616 528.38731095 339 529 C340.70760498 529.27928345 340.70760498 529.27928345 342.44970703 529.56420898 C349.45461418 530.68385005 356.43034779 531.49156601 363.5 532.0625 C365.38562813 532.21750068 367.2710555 532.37496767 369.15625 532.53515625 C369.96900391 532.600979 370.78175781 532.66680176 371.61914062 532.73461914 C374 533 374 533 376.51855469 533.51147461 C378.89925934 533.98016705 381.12549775 534.18402255 383.546875 534.28125 C384.8153125 534.33732422 384.8153125 534.33732422 386.109375 534.39453125 C387.41648437 534.44673828 387.41648437 534.44673828 388.75 534.5 C390.47407494 534.57010546 392.19803859 534.64300567 393.921875 534.71875 C395.06027832 534.76418945 395.06027832 534.76418945 396.22167969 534.81054688 C398.4309035 534.96119342 400.63294555 535.2163028 402.828125 535.50708008 C409.80223911 536.29844663 416.81908693 536.16450688 423.828125 536.16796875 C425.38246692 536.17119463 426.93680856 536.17455962 428.4911499 536.17805481 C431.75240782 536.18402606 435.01363935 536.18589742 438.27490234 536.18530273 C441.55588404 536.1852224 444.83672337 536.19201636 448.11767578 536.20581055 C481.74546891 536.91316799 481.74546891 536.91316799 515 533 C516.51828805 532.83192262 518.03956818 532.68917076 519.5625 532.5703125 C520.43044189 532.49901123 521.29838379 532.42770996 522.19262695 532.35424805 C523.11906006 532.27859619 524.04549316 532.20294434 525 532.125 C543.3940921 530.51500384 561.36123139 527.52631961 579.42724609 523.74316406 C582.61471231 523.08014321 585.80462977 522.43176737 588.99610901 521.78849792 C606.25411163 518.30276089 623.21610613 514.37694136 640 509 C641.33635925 508.57677553 642.67278891 508.15377337 644.00927734 507.73095703 C712.40274052 486.01622495 775.30993732 454.32010098 826.75 403.4375 C827.46631592 402.73423584 828.18263184 402.03097168 828.9206543 401.30639648 C829.58105713 400.64712158 830.24145996 399.98784668 830.921875 399.30859375 C831.51581055 398.71876709 832.10974609 398.12894043 832.72167969 397.52124023 C834.21444442 396.07597568 834.21444442 396.07597568 834 394 C834.66 394 835.32 394 836 394 C837.68321919 392.14534182 839.22106014 390.2903453 840.75 388.3125 C841.22808105 387.69673096 841.70616211 387.08096191 842.19873047 386.4465332 C871.40714403 348.18808546 891.3085616 301.92174028 885.46484375 252.87109375 C884.9163851 248.9680813 884.22370509 245.10230974 883.44873047 241.23828125 C883.00344257 239.01717163 882.59675775 236.79119625 882.19140625 234.5625 C876.96890627 207.31845842 863.78259947 181.88032185 847 160 C846.29230469 159.07316406 845.58460938 158.14632812 844.85546875 157.19140625 C842.94361089 154.75777862 840.98414164 152.37501382 839 150 C838.04542947 148.83605513 837.0910136 147.67198341 836.13671875 146.5078125 C835.13360241 145.29622058 834.12970083 144.08527833 833.125 142.875 C832.64796631 142.29331055 832.17093262 141.71162109 831.67944336 141.11230469 C830.49728036 139.70313751 829.253377 138.34621974 828 137 C827.34 137 826.68 137 826 137 C825.731875 136.401875 825.46375 135.80375 825.1875 135.1875 C824.00082594 133.00152146 822.90400887 131.58667406 821 130 C820.34 130 819.68 130 819 130 C818.75765625 129.42378906 818.5153125 128.84757812 818.265625 128.25390625 C813.4931737 119.75481859 802.5906387 113.36227183 794.88720703 107.45019531 C793.62736526 106.48208922 792.37052545 105.51006415 791.11669922 104.53417969 C744.38914296 68.18385992 687.8327739 43.68018506 631 28 C630.26491211 27.79358887 629.52982422 27.58717773 628.77246094 27.37451172 C614.3185368 23.33582297 599.67697468 20.1127033 585 17 C583.18943115 16.61062256 583.18943115 16.61062256 581.34228516 16.21337891 C562.40810236 12.18052048 543.5648659 9.53903114 524.30937195 7.64981079 C520.86358587 7.30867423 517.4278749 6.93737832 513.99511719 6.48242188 C491.17693441 3.47667472 468.09918184 3.79755929 445.125 3.8125 C443.67932129 3.81244382 442.23364258 3.81238274 440.78796387 3.81231689 C419.79682426 3.81943062 398.92432898 4.18118802 378 6 Z " fill="#FEFEFE" transform="translate(0,0)"/>
<path d="M0 0 C2.9375 -0.5 2.9375 -0.5 6 0 C12.45326435 6.89831707 10.11804178 20.69362994 10.0625 29.5625 C10.05747366 30.96679527 10.05291276 32.3710923 10.04882812 33.77539062 C10.03711593 37.18363903 10.02071372 40.5917964 10 44 C10.66 44 11.32 44 12 44 C13.0844114 38.06763174 13.99843438 32.13780122 14.73046875 26.15234375 C14.92129028 24.6055896 14.92129028 24.6055896 15.1159668 23.02758789 C15.37085083 20.93520551 15.61847812 18.84192568 15.85864258 16.74780273 C15.97747803 15.77657471 16.09631348 14.80534668 16.21875 13.8046875 C16.32123047 12.92796387 16.42371094 12.05124023 16.52929688 11.14794922 C17 9 17 9 19 7 C22.5 6.75 22.5 6.75 26 7 C28.45588472 9.45588472 28.25636641 10.14153041 28.265625 13.515625 C28.26949219 14.43005371 28.27335938 15.34448242 28.27734375 16.28662109 C28.26832031 17.26453613 28.25929688 18.24245117 28.25 19.25 C28.24613281 20.2498291 28.24226562 21.2496582 28.23828125 22.27978516 C28.16148111 28.88779753 27.55938254 35.09408257 26.44921875 41.60546875 C25.91349927 45.65364461 25.80883788 49.60880975 25.8125 53.6875 C25.8115332 54.71399658 25.8115332 54.71399658 25.81054688 55.76123047 C25.84397396 58.77650529 26.0391661 61.11749829 27 64 C27.66 64.33 28.32 64.66 29 65 C30.01399434 62.48529403 31.01191533 59.96825796 31.96484375 57.4296875 C32.28582031 56.58664063 32.60679687 55.74359375 32.9375 54.875 C33.25589844 54.02679688 33.57429687 53.17859375 33.90234375 52.3046875 C35.01131369 49.97624527 35.99326027 48.60329597 38 47 C38.66 47 39.32 47 40 47 C40 46.34 40 45.68 40 45 C43.49384279 43.83538574 46.33655389 43.86431681 50 44 C51 45 51 45 51.3046875 47.64453125 C50.9334736 51.73264325 49.35257228 54.36155731 47.125 57.6875 C46.76019531 58.25533203 46.39539063 58.82316406 46.01953125 59.40820312 C44.37540915 61.95808704 42.68292711 64.47560934 41 67 C40.50013492 68.3183255 40.045541 69.65426879 39.625 71 C39.36589844 71.79148437 39.10679687 72.58296875 38.83984375 73.3984375 C38.26068558 75.19248096 37.69093019 76.98957779 37.12890625 78.7890625 C34.63000751 86.31686534 31.83505398 91.8612199 24.75 95.8125 C23.8425 96.204375 22.935 96.59625 22 97 C15.94476653 103.05523347 18.86593505 122.72786401 18.86105347 130.94029236 C18.86284486 133.08389305 18.86489621 135.22749354 18.8671875 137.37109375 C18.86651172 139.62386587 18.86553942 141.87663792 18.86428833 144.12940979 C18.86282153 148.83522236 18.86493116 153.54101584 18.86962891 158.24682617 C18.87529578 164.20666006 18.87206 170.16644859 18.86605644 176.12628078 C18.86239768 180.7775556 18.86361396 185.42882013 18.86618423 190.08009529 C18.86684046 192.27359078 18.86607207 194.46708728 18.86370468 196.66058159 C18.85245956 210.01539776 19.13847528 223.31837582 19.77638245 236.65846252 C20.14164108 244.6046727 20.10901295 252.54752096 20.0625 260.5 C20.041875 265.615 20.02125 270.73 20 276 C3.83 276 -12.34 276 -29 276 C-28.4440908 264.3259067 -27.86758653 253.19250497 -26.69897461 241.65234375 C-26.09776476 235.64400678 -25.77239692 229.65844327 -25.5625 223.625 C-25.16783208 212.56048498 -24.35168784 201.53678803 -23.5 190.5 C-23.43410675 189.63594543 -23.3682135 188.77189087 -23.30032349 187.88165283 C-23.10947776 185.3896064 -22.91491208 182.89788309 -22.71875 180.40625 C-22.66146225 179.66228973 -22.6041745 178.91832947 -22.54515076 178.15182495 C-22.19038092 173.73624743 -21.63633684 169.38566782 -21 165 C-19.3793595 148.10512245 -18.7377765 131.07133651 -18.53665161 114.10519409 C-18.5123479 112.33624404 -18.47785083 110.56740272 -18.43283081 108.79885864 C-18.37287517 106.30141551 -18.35313723 103.80667623 -18.34375 101.30859375 C-18.319142 100.57128021 -18.294534 99.83396667 -18.2691803 99.0743103 C-18.3206329 93.00307821 -20.85308982 90.20138795 -25 86 C-29.74185214 78.90670886 -29.35380448 70.88868274 -29.57641602 62.68334961 C-29.80996315 55.97499184 -30.89713043 50.98044827 -34 45 C-34.9084116 42.81769343 -35.80385925 40.62995357 -36.6875 38.4375 C-37.93443303 34.96166853 -37.93443303 34.96166853 -40 32 C-40.125 29 -40.125 29 -40 26 C-39 25 -39 25 -35.703125 24.98828125 C-32 26 -32 26 -29.671875 29.16796875 C-29.00506435 30.49497486 -28.36502971 31.83571595 -27.75 33.1875 C-27.42515625 33.84814453 -27.1003125 34.50878906 -26.765625 35.18945312 C-25.27910923 38.22542182 -23.86561947 41.29217584 -22.453125 44.36328125 C-21.12745248 47.24796081 -21.12745248 47.24796081 -18 49 C-17.37409114 40.44591226 -18.65651769 32.67402432 -20.57714844 24.38378906 C-21.87366125 18.57605874 -22.51632395 12.95723767 -22 7 C-21 6 -21 6 -19.15234375 5.90234375 C-17.1015625 5.93489583 -15.05078125 5.96744792 -13 6 C-11.17343576 12.08570235 -9.7471349 18.23497161 -8.375 24.4375 C-8.03082031 25.93506836 -8.03082031 25.93506836 -7.6796875 27.46289062 C-6.43143914 33.11344348 -5.73795374 38.21429432 -6 44 C-4.68 44 -3.36 44 -2 44 C-2.01571045 42.1605481 -2.01571045 42.1605481 -2.03173828 40.28393555 C-2.06791104 35.73855503 -2.09089057 31.19318727 -2.10986328 26.64770508 C-2.11992707 24.67958436 -2.13357934 22.71147862 -2.15087891 20.7434082 C-2.17511059 17.91614082 -2.18647923 15.08907095 -2.1953125 12.26171875 C-2.20563507 11.38037766 -2.21595764 10.49903656 -2.22659302 9.59098816 C-2.22681961 8.3600518 -2.22681961 8.3600518 -2.22705078 7.10424805 C-2.231492 6.38254929 -2.23593323 5.66085052 -2.24050903 4.9172821 C-2 3 -2 3 0 0 Z " fill="#FEFEFD" transform="translate(486,81)"/>
<path d="M0 0 C2.625 0.4375 2.625 0.4375 4.76464844 2.46948242 C7.08608628 6.17312021 7.13721447 9.13520008 7.015625 13.36328125 C7.00996521 14.11087204 7.00430542 14.85846283 6.99847412 15.62870789 C6.97618468 18.00313911 6.92600656 20.37602938 6.875 22.75 C6.85492519 24.36521249 6.83667613 25.98044877 6.8203125 27.59570312 C6.77634486 31.54355733 6.70737261 35.49026792 6.625 39.4375 C7.285 39.4375 7.945 39.4375 8.625 39.4375 C10.44847265 29.96461691 11.95051918 20.75485732 12.31640625 11.09765625 C12.625 8.4375 12.625 8.4375 14.625 6.4375 C17.0625 6.0625 17.0625 6.0625 19.625 6.4375 C22.02848171 8.78375595 22.5955392 10.18534089 22.98828125 13.546875 C22.97152344 14.74828125 22.95476562 15.9496875 22.9375 17.1875 C22.92493164 18.17169922 22.92493164 18.17169922 22.91210938 19.17578125 C22.78226502 24.65001926 22.11612332 30.00428997 21.34155273 35.41894531 C20.38361461 42.43750184 20.44205102 49.36347294 20.625 56.4375 C21.615 56.7675 22.605 57.0975 23.625 57.4375 C23.86283203 56.45910156 23.86283203 56.45910156 24.10546875 55.4609375 C25.67309189 49.58884641 27.19430237 45.65721203 31.625 41.4375 C35.02101266 39.56969304 37.76871867 39.11614322 41.625 39.4375 C41.955 39.7675 42.285 40.0975 42.625 40.4375 C42.38232388 47.59644559 42.38232388 47.59644559 39.2578125 51.06640625 C35.74893686 55.04100082 34.9521754 59.66426967 33.625 64.6875 C30.58184924 75.27845366 30.58184924 75.27845366 26.3203125 78.15625 C25.78937988 78.43919922 25.25844727 78.72214844 24.71142578 79.01367188 C19.00208411 82.22657451 19.00208411 82.22657451 16.03505325 87.71938133 C15.78895619 90.61439345 15.73677964 93.45744339 15.74829102 96.36303711 C15.72923234 97.46059043 15.71017366 98.55814375 15.69053745 99.68895626 C15.63745213 103.2722286 15.62914622 106.85386285 15.625 110.4375 C15.60455194 112.83180939 15.58272523 115.2261074 15.55953979 117.62039185 C15.50531007 124.686825 15.50853733 131.75272118 15.52360606 138.81927228 C15.52999502 142.33987546 15.53045535 145.86048018 15.53163147 149.38108826 C15.53470014 156.00304976 15.54285117 162.62499412 15.55298096 169.24694818 C15.56428352 176.80481825 15.56968762 184.36268927 15.57467639 191.92056572 C15.58503929 207.42622201 15.60332684 222.93185477 15.625 238.4375 C2.425 238.4375 -10.775 238.4375 -24.375 238.4375 C-24.375 226.06788549 -24.375 226.06788549 -24.0078125 220.890625 C-23.92789062 219.73216064 -23.84796875 218.57369629 -23.765625 217.38012695 C-23.67796875 216.16156006 -23.5903125 214.94299316 -23.5 213.6875 C-23.3620519 211.70141689 -23.22411601 209.71533285 -23.08685303 207.72920227 C-22.99212173 206.36010214 -22.89694411 204.99103282 -22.80133057 203.62199402 C-22.29339024 196.33339458 -21.83597216 189.0416998 -21.375 181.75 C-20.75732966 172.0794099 -20.0969269 162.41336593 -19.375 152.75 C-19.2939502 151.65042969 -19.21290039 150.55085937 -19.12939453 149.41796875 C-18.71475758 143.82817 -18.27706178 138.2414754 -17.8046875 132.65625 C-16.35098087 114.87794702 -16.14811049 97.26054377 -16.375 79.4375 C-17.303125 79.0353125 -17.303125 79.0353125 -18.25 78.625 C-21.46279281 76.82961578 -22.30154681 74.64806582 -23.48828125 71.24609375 C-24.26286556 67.91913469 -24.53755473 64.99041192 -24.55078125 61.58789062 C-24.60185321 52.48857005 -26.59039212 40.22210788 -33.375 33.4375 C-33.44705511 31.75141034 -33.45886068 30.06249341 -33.4375 28.375 C-33.42847656 27.45589844 -33.41945313 26.53679687 -33.41015625 25.58984375 C-33.39855469 24.87957031 -33.38695312 24.16929687 -33.375 23.4375 C-31.725 23.4375 -30.075 23.4375 -28.375 23.4375 C-22.42544689 34.08508211 -22.42544689 34.08508211 -20.75 38.4375 C-19.29199398 41.61860404 -18.18195671 42.51272968 -15.375 44.4375 C-16.59913808 34.28729545 -16.59913808 34.28729545 -18.5 24.25 C-19.65106393 18.7709357 -20.19281215 12.99510514 -19.375 7.4375 C-16.375 5.4375 -16.375 5.4375 -14.3125 5.5625 C-11.73828214 6.72505 -11.45327224 7.86667197 -10.375 10.4375 C-9.90429688 12.50878906 -9.90429688 12.50878906 -9.59375 14.703125 C-9.47386719 15.51136719 -9.35398437 16.31960937 -9.23046875 17.15234375 C-9.11316406 17.98894531 -8.99585938 18.82554687 -8.875 19.6875 C-8.63906193 21.33906652 -8.3995097 22.99012099 -8.15625 24.640625 C-8.05376953 25.36926758 -7.95128906 26.09791016 -7.84570312 26.84863281 C-7.19508701 30.42702145 -6.28049668 33.91498776 -5.375 37.4375 C-5.35518066 36.38771973 -5.33536133 35.33793945 -5.31494141 34.25634766 C-5.23897802 30.36856739 -5.15024702 26.48116597 -5.05761719 22.59375 C-5.01928896 20.90990671 -4.98444288 19.22598045 -4.953125 17.54199219 C-4.90755713 15.12404694 -4.84955077 12.70667472 -4.7890625 10.2890625 C-4.77173569 9.15617294 -4.77173569 9.15617294 -4.75405884 8.00039673 C-4.55092853 0.83832894 -4.55092853 0.83832894 0 0 Z " fill="#FEFEFC" transform="translate(396.375,118.5625)"/>
<path d="M0 0 C1.67542976 0.28604898 3.34385343 0.61781233 5 1 C6.56685 7.82497275 7.89333709 14.66974944 9.125 21.5625 C9.30675781 22.57119141 9.48851562 23.57988281 9.67578125 24.61914062 C10.11881423 27.07913957 10.56018835 29.53942346 11 32 C11.01458252 31.29915283 11.02916504 30.59830566 11.04418945 29.8762207 C11.11885487 26.68776991 11.21545475 23.50034487 11.3125 20.3125 C11.33505859 19.20970703 11.35761719 18.10691406 11.38085938 16.97070312 C11.41630859 15.90400391 11.45175781 14.83730469 11.48828125 13.73828125 C11.51446533 12.75899658 11.54064941 11.77971191 11.56762695 10.77075195 C12.06337051 7.59390633 13.19525506 5.63253249 15 3 C18.875 3.875 18.875 3.875 20 5 C20.0883967 7.3756852 20.11530305 9.72208674 20.09765625 12.09765625 C20.0962413 12.80651474 20.09482635 13.51537323 20.09336853 14.24571228 C20.08775443 16.51801712 20.07519963 18.79022475 20.0625 21.0625 C20.05748681 22.59960796 20.05292359 24.13671745 20.04882812 25.67382812 C20.03778042 29.44925642 20.02050641 33.22461171 20 37 C23.47833802 33.89064015 24.33649679 30.31166286 25.5625 25.9375 C27.74493243 18.25506757 27.74493243 18.25506757 30 16 C32.125 16.375 32.125 16.375 34 17 C34.25254455 22.13507255 34.07769002 26.16569948 32.484375 31.0625 C30.45475229 38.19462655 30.86919417 44.96390009 31.20507812 52.30273438 C31.3622987 58.29628928 30.87372983 62.06654858 27.85668945 67.25415039 C26.4934468 70.03230606 26.94708065 72.16014953 27.5625 75.125 C27.78550781 76.25550781 28.00851562 77.38601562 28.23828125 78.55078125 C28.48964844 79.68902344 28.74101563 80.82726562 29 82 C29.29970703 83.53720703 29.29970703 83.53720703 29.60546875 85.10546875 C33.59184345 104.94070285 39.1493215 124.49321653 44.25 144.0625 C44.51811493 145.09157471 44.78622986 146.12064941 45.06246948 147.1809082 C45.8374379 150.15344171 46.6137521 153.12561997 47.390625 156.09765625 C47.62376907 156.99162613 47.85691315 157.88559601 48.09712219 158.80665588 C49.84676748 165.48888522 51.69845067 172.11514989 53.80200195 178.6965332 C60 198.11438725 60 198.11438725 60 204 C47.79 204 35.58 204 23 204 C19.6875 186 19.6875 186 18.6628418 180.4296875 C18.38335723 178.91144794 18.10381781 177.39321848 17.82421875 175.875 C17.67152023 175.04545807 17.51882172 174.21591614 17.36149597 173.36123657 C16.52737746 168.83655784 15.68344537 164.31393338 14.8273468 159.79336548 C13.25786741 151.49735181 11.7976918 143.18576286 10.38104248 134.86245728 C9.98958758 132.56385892 9.59580161 130.2656684 9.20166016 127.9675293 C8.13656001 121.74682846 7.07224334 115.5267481 6.0859375 109.29296875 C4.75021006 100.85471686 3.04044955 92.61891864 0.8671875 84.35546875 C0 81 0 81 -0.48046875 78.11328125 C-0.65191406 77.41589844 -0.82335937 76.71851563 -1 76 C-3.26225382 74.92745649 -3.26225382 74.92745649 -6 74 C-10.88001522 70.48456959 -13.38207646 67.2346087 -15.875 61.8125 C-16.33519531 60.86987305 -16.33519531 60.86987305 -16.8046875 59.90820312 C-19 55.32646833 -19 55.32646833 -19 53 C-19.59296875 52.76539063 -20.1859375 52.53078125 -20.796875 52.2890625 C-23.51094 50.70104575 -24.58493241 49.02397116 -26.25 46.375 C-26.77078125 45.55773437 -27.2915625 44.74046875 -27.828125 43.8984375 C-28.21484375 43.27195313 -28.6015625 42.64546875 -29 42 C-28.34 40.68 -27.68 39.36 -27 38 C-23.18819706 37.70103506 -20.73996467 37.57716305 -17.375 39.5 C-14.28737813 42.75012828 -10 47.29510701 -10 52 C-9.34 52 -8.68 52 -8 52 C-8.49909642 43.03491194 -10.44524784 34.94142572 -12.91601562 26.34179688 C-14.47281174 20.71396006 -15.5279467 15.84751089 -15 10 C-13 8 -13 8 -10.5625 7.875 C-8 9 -8 9 -6.4375 12.25 C-5.93675198 13.82664091 -5.46107979 15.41130539 -5 17 C-4.48759766 18.64162109 -4.48759766 18.64162109 -3.96484375 20.31640625 C-3.25623495 22.58954199 -2.55651533 24.8654745 -1.8671875 27.14453125 C-1.27187155 29.10478332 -0.64784175 31.05647476 0 33 C-0.0721875 32.11441406 -0.144375 31.22882813 -0.21875 30.31640625 C-0.76093176 23.07978578 -1.1064188 15.8832825 -1.125 8.625 C-1.12951172 7.88193604 -1.13402344 7.13887207 -1.13867188 6.37329102 C-1.12391434 1.12391434 -1.12391434 1.12391434 0 0 Z " fill="#FEFEFC" transform="translate(550,153)"/>
<path d="M0 0 C4.875 0.875 4.875 0.875 6 2 C5.88547464 9.7309125 4.2362719 17.20521352 2.4375 24.6875 C2.08655273 26.18700195 2.08655273 26.18700195 1.72851562 27.71679688 C1.15894867 30.14617428 0.58272348 32.57375133 0 35 C0.66 35 1.32 35 2 35 C2.14695312 34.3915625 2.29390625 33.783125 2.4453125 33.15625 C3.99049843 27.11759236 5.8953966 21.27616401 8.0625 15.4375 C8.3198291 14.73496094 8.5771582 14.03242188 8.84228516 13.30859375 C9.94802357 10.38092436 10.76165922 8.23834078 13 6 C15.625 6.375 15.625 6.375 18 7 C18.47618833 14.38091906 17.02958023 19.32165527 14 26 C12.63657604 29.15048323 11.72241164 31.8962855 11.375 35.3125 C11.189375 37.1378125 11.189375 37.1378125 11 39 C14.86470235 36.31617892 16.86526463 33.79349282 19.03515625 29.75 C20.43904285 27.20367936 21.97645384 25.08678198 24 23 C25.32 23 26.64 23 28 23 C28.91698787 30.03024033 25.96145291 34.34856947 22 40 C21.31164062 40.76441406 20.62328125 41.52882812 19.9140625 42.31640625 C17.54152431 45.64280163 16.88855405 48.88453553 16.125 52.8125 C14.5349797 60.02937546 12.24526789 65.3978514 6.47705078 70.29223633 C4.60705073 72.4543273 4.3591198 73.99420558 3.90234375 76.8046875 C3.74185547 77.76858398 3.58136719 78.73248047 3.41601562 79.72558594 C3.25810547 80.76489258 3.10019531 81.80419922 2.9375 82.875 C2.67936523 84.50356934 2.67936523 84.50356934 2.41601562 86.16503906 C1.28964724 93.4949991 0.41989017 100.81727152 -0.20898438 108.20507812 C-0.71035671 114.07767407 -1.30993285 119.93285598 -1.97265625 125.7890625 C-2.06130951 126.57337646 -2.14996277 127.35769043 -2.24130249 128.16577148 C-2.60116474 131.33884928 -2.96254985 134.51173192 -3.32983398 137.68395996 C-3.58873656 139.92179029 -3.84337889 142.16007756 -4.09765625 144.3984375 C-4.24726807 145.69442871 -4.39687988 146.99041992 -4.55102539 148.32568359 C-5.17975298 154.87142494 -5.56257983 161.4386974 -6 168 C-17.55 168 -29.1 168 -41 168 C-41 159.01225919 -41 159.01225919 -40.046875 155.765625 C-39.84167236 155.03649902 -39.63646973 154.30737305 -39.42504883 153.55615234 C-39.20228271 152.79512207 -38.9795166 152.0340918 -38.75 151.25 C-36.17404906 142.0022902 -34.25067619 132.6985648 -32.45361328 123.2734375 C-32.00252891 121.01267448 -31.49835698 118.76974701 -30.98046875 116.5234375 C-29.91533432 111.79648517 -29.18582864 107.04473122 -28.5 102.25 C-28.24392147 100.48691638 -27.98741084 98.72389547 -27.73046875 96.9609375 C-27.54556885 95.68814941 -27.54556885 95.68814941 -27.35693359 94.38964844 C-26.88219745 91.2113192 -26.34324142 88.044392 -25.8125 84.875 C-24.52386635 76.95006631 -24.52386635 76.95006631 -25 69 C-27.16744884 65.99820559 -27.16744884 65.99820559 -30 64 C-33.33188514 60.91492116 -34.88210574 58.53455811 -35.23828125 53.8984375 C-35.26277344 52.73570312 -35.28726562 51.57296875 -35.3125 50.375 C-35.63480642 44.30805556 -36.86000378 40.23214858 -40.0390625 35.0859375 C-41 33 -41 33 -40.6484375 30.7265625 C-40.43445313 30.15679687 -40.22046875 29.58703125 -40 29 C-36.63551496 27.81253469 -35.2627904 27.88737554 -31.9375 29.3125 C-27.97976735 32.93340434 -26.45003158 36.89077107 -25 42 C-25 42.99 -25 43.98 -25 45 C-24.34 45 -23.68 45 -23 45 C-21.27195139 40.4345 -20.57955948 36.13690854 -20.25390625 31.30078125 C-20.1376963 29.83005229 -20.02114999 28.35934987 -19.90429688 26.88867188 C-19.73054024 24.5913874 -19.56118251 22.29392394 -19.39819336 19.99584961 C-19.23689401 17.76307708 -19.05891396 15.53211206 -18.87890625 13.30078125 C-18.83504288 12.61325272 -18.7911795 11.92572418 -18.74598694 11.21736145 C-18.50974102 8.38007052 -18.27007251 6.38289901 -16.60913086 4.02807617 C-15 3 -15 3 -12.375 3.25 C-10 4 -10 4 -9 5 C-8.9832207 7.00163877 -9.03737459 9.00394864 -9.12109375 11.00390625 C-9.16943359 12.21884766 -9.21777344 13.43378906 -9.26757812 14.68554688 C-9.32365234 15.96494141 -9.37972656 17.24433594 -9.4375 18.5625 C-9.48970703 19.84576172 -9.54191406 21.12902344 -9.59570312 22.45117188 C-9.7258696 25.63433391 -9.86085001 28.81722004 -10 32 C-9.34 32 -8.68 32 -8 32 C-7.89042969 30.97261719 -7.78085937 29.94523437 -7.66796875 28.88671875 C-5.2402831 7.23658142 -5.2402831 7.23658142 0 0 Z " fill="#FEFEFB" transform="translate(328,189)"/>
<path d="M0 0 C3 1.375 3 1.375 5 3 C5 3.66 5 4.32 5 5 C5.598125 5.04125 6.19625 5.0825 6.8125 5.125 C9 6 9 6 10.6875 8.8125 C11.68873357 11.24406723 12.50593289 13.43085105 13 16 C14.03125 15.505 15.0625 15.01 16.125 14.5 C20.31783727 12.74388179 23.54309837 12.18426981 27.9765625 13.65625 C33.09669215 15.8807258 36.79088343 18.77380292 39 24 C39.76481693 28.28738719 39.5407591 31.74771577 37.8125 35.75 C28.56545952 47.22908474 14.95845707 50.31712067 1.0078125 53.2890625 C-2.07136792 54.01686878 -5.0143067 54.95723548 -8 56 C-8.38671875 54.9378125 -8.7734375 53.875625 -9.171875 52.78125 C-12.31860029 43.97211568 -12.31860029 43.97211568 -16.25 35.5 C-20.27682464 27.44635072 -21.4136397 18.98931659 -18.9375 10.25 C-14.48543331 2.78201717 -8.77694807 -0.97335179 0 0 Z " fill="#FEFEFC" transform="translate(539,34)"/>
<path d="M0 0 C4.40137843 3.39180672 8.41102742 7.91064833 9.24780273 13.56738281 C9.31837155 15.96086386 9.36230339 18.35159274 9.37890625 20.74609375 C9.41177734 21.56722656 9.44464844 22.38835937 9.47851562 23.234375 C9.53973124 30.25747536 7.30240007 34.93839765 2.49804688 40.02392578 C-3.09853977 45.06999851 -8.8728547 46.03028561 -16.17578125 45.87109375 C-21.80346371 45.13903749 -26.71099153 42.86573918 -30.72265625 38.81640625 C-36.40452426 31.34026413 -36.90571347 23.3446391 -35.78125 14.25390625 C-34.61294473 8.53477379 -32.03188589 3.69606327 -27.31640625 0.20703125 C-18.619091 -4.98149587 -8.64303918 -5.45794782 0 0 Z " fill="#362D80" transform="translate(389.05859375,453.50390625)"/>
<path d="M0 0 C3.96 -0.0825 7.92 -0.165 12 -0.25 C13.84851563 -0.30462402 13.84851563 -0.30462402 15.734375 -0.36035156 C22.33535004 -0.42661783 27.6005485 -0.05961992 33 4 C34.83984375 6.03515625 34.83984375 6.03515625 35.9375 8.0625 C36.31777344 8.73410156 36.69804687 9.40570313 37.08984375 10.09765625 C40.51283253 17.25214353 40.06349077 27.59626252 37.8125 35.125 C35.78195112 40.14942792 32.82253934 42.97927959 28.10546875 45.62109375 C22.80287859 47.819966 17.19974109 47.31696445 11.5625 47.1875 C5.8390625 47.0946875 5.8390625 47.0946875 0 47 C0 31.49 0 15.98 0 0 Z " fill="#332981" transform="translate(424,451)"/>
<path d="M0 0 C3.34117946 2.82450223 5.5661807 4.89027522 6.2109375 9.34375 C6.75685448 19.03087253 3.81649369 24.30058721 -2.16796875 31.7265625 C-4.63044042 34.79998832 -7.06351892 37.88195932 -9.41796875 41.0390625 C-9.93875 41.73644531 -10.45953125 42.43382812 -10.99609375 43.15234375 C-11.57617188 43.93158203 -11.57617188 43.93158203 -12.16796875 44.7265625 C-24.00362931 40.14345847 -38.31963436 33.94567686 -45.16796875 22.7265625 C-46.68586499 18.17287379 -47.26996222 14.08862228 -45.21484375 9.68359375 C-43.00772271 6.60757736 -41.20657562 5.02660448 -37.53125 3.96484375 C-31.9529692 3.25709462 -27.95067547 3.45418422 -23.16796875 6.7265625 C-22.83796875 7.0565625 -22.50796875 7.3865625 -22.16796875 7.7265625 C-21.71357422 7.00339844 -21.71357422 7.00339844 -21.25 6.265625 C-19.3817437 3.44886935 -17.82710784 1.15971104 -14.98046875 -0.7109375 C-9.86641436 -1.73374838 -4.68950491 -2.75455604 0 0 Z " fill="#FEFEFB" transform="translate(421.16796875,41.2734375)"/>
<path d="M0 0 C3.16484654 1.71787077 4.92411669 3.1889094 6.93359375 6.203125 C7.93273803 15.1373337 6.81001685 22.20061086 2.93359375 30.203125 C2.18985399 31.96788728 1.46049407 33.73878317 0.74609375 35.515625 C0.26076172 36.68544922 0.26076172 36.68544922 -0.234375 37.87890625 C-1.10244909 40.30380804 -1.62240341 42.6691694 -2.06640625 45.203125 C-9.85946813 43.31281708 -17.48009668 40.78686811 -25.06640625 38.203125 C-25.06640625 37.543125 -25.06640625 36.883125 -25.06640625 36.203125 C-25.76765625 36.120625 -26.46890625 36.038125 -27.19140625 35.953125 C-32.44818124 34.58179239 -36.53417259 31.25865254 -40.06640625 27.203125 C-41.31167104 23.46733063 -41.71811842 20.07678497 -41.06640625 16.203125 C-39.33780735 12.92524245 -36.94164907 10.76230791 -33.81640625 8.765625 C-29.30827481 7.8435072 -24.22651007 8.12307309 -20.06640625 10.203125 C-19.83566406 9.66042969 -19.60492188 9.11773437 -19.3671875 8.55859375 C-17.85659838 5.24485081 -16.58870656 2.68065671 -13.87890625 0.203125 C-9.22752492 -1.45069947 -4.6717855 -1.80159592 0 0 Z " fill="#FEFEFB" transform="translate(333.06640625,96.796875)"/>
<path d="M0 0 C2.64 0 5.28 0 8 0 C11.06921796 6.55086209 12.9909977 13.37539996 15 20.3125 C15.68738658 22.66279359 16.37488481 25.01305453 17.0625 27.36328125 C18.00521984 30.59089048 18.94746197 33.81858687 19.8828125 37.04833984 C20.14835937 37.95406738 20.41390625 38.85979492 20.6875 39.79296875 C20.91824219 40.58598389 21.14898437 41.37899902 21.38671875 42.19604492 C21.85131823 43.99861093 21.85131823 43.99861093 23 45 C23.14695313 44.34257812 23.29390625 43.68515625 23.4453125 43.0078125 C25.14727915 35.78912638 27.33315434 28.82574769 29.72583008 21.81518555 C31.77823845 15.76945562 33.56521279 9.69016556 35.23828125 3.52734375 C36 1 36 1 37 0 C39.64 0 42.28 0 45 0 C45 19.47 45 38.94 45 59 C43.02 59 41.04 59 39 59 C38.67 44.48 38.34 29.96 38 15 C36.618125 19.475625 35.23625 23.95125 33.8125 28.5625 C30.65914054 38.74922704 27.46629396 48.91465224 24 59 C23.01 59 22.02 59 21 59 C16.38 44.48 11.76 29.96 7 15 C6.67 29.52 6.34 44.04 6 59 C4.02 59 2.04 59 0 59 C0 39.53 0 20.06 0 0 Z " fill="#3C367E" transform="translate(208,371)"/>
<path d="M0 0 C2.64 0 5.28 0 8 0 C8.37511719 1.12535156 8.75023437 2.25070312 9.13671875 3.41015625 C9.38188232 4.14548584 9.6270459 4.88081543 9.87963867 5.63842773 C10.42315993 7.26932003 10.96628444 8.9003446 11.5090332 10.53149414 C12.79908215 14.40692343 14.09255136 18.28095402 15.40625 22.1484375 C17.8508139 29.37778806 20.10905345 36.60532283 22 44 C22.33 44 22.66 44 23 44 C23.23783203 42.9790625 23.23783203 42.9790625 23.48046875 41.9375 C26.8244033 28.04446808 31.4321263 14.52868126 36 1 C38.64 1 41.28 1 44 1 C44 20.14 44 39.28 44 59 C42.35 59 40.7 59 39 59 C38.67 44.15 38.34 29.3 38 14 C33.38 28.85 28.76 43.7 24 59 C23.01 59 22.02 59 21 59 C15.61966414 44.91617967 11.43078275 30.40004393 7 16 C6.67 30.19 6.34 44.38 6 59 C4.02 59 2.04 59 0 59 C0 39.53 0 20.06 0 0 Z " fill="#372E80" transform="translate(529,371)"/>
<path d="M0 0 C5.42770745 2.60947474 7.53620817 5.70741015 10 11 C12.63224142 20.4321984 11.73254951 30.45556761 7 39 C4.29722771 42.35798981 2.29666873 43.64837824 -2.015625 44.30859375 C-6.40184387 44.56164484 -9.32886053 44.29378189 -12.875 41.5625 C-17.9957194 36.47742366 -19.13572111 30.52205049 -19.3125 23.5 C-19.06319106 15.7497439 -18.0989791 9.11877492 -13 3 C-9.04712878 -0.29405935 -4.99992813 -0.86442765 0 0 Z " fill="#39307F" transform="translate(349,387)"/>
<path d="M0 0 C4.37470546 1.87487377 7.49778109 4.98183825 10 9 C13.21454008 18.03132688 13.13950115 27.04694405 9.21484375 35.83203125 C7.17292448 39.47597078 4.78963589 42.10518205 1 44 C-4.5139174 44.36759449 -8.37032495 44.3670364 -13 41 C-18.33212582 32.82293805 -18.68804279 24.49881299 -18 15 C-16.79135584 9.83698743 -15.18293173 6.15476669 -11.375 2.4375 C-7.29213326 -0.03370882 -4.83888947 -0.3280603 0 0 Z " fill="#372F80" transform="translate(669,387)"/>
<path d="M0 0 C3.3 0 6.6 0 10 0 C13.63 10.23 17.26 20.46 21 31 C23.05147209 27.92279186 23.99021466 25.34191567 25.12890625 21.8359375 C25.52400391 20.63195312 25.91910156 19.42796875 26.32617188 18.1875 C26.73866137 16.91679 27.15076621 15.64595507 27.5625 14.375 C28.37269726 11.88159977 29.1872791 9.38975174 30.00390625 6.8984375 C30.36299072 5.79161621 30.7220752 4.68479492 31.09204102 3.54443359 C32 1 32 1 33 0 C34.68608966 -0.07205511 36.37500659 -0.08386068 38.0625 -0.0625 C38.98160156 -0.05347656 39.90070312 -0.04445313 40.84765625 -0.03515625 C41.55792969 -0.02355469 42.26820313 -0.01195312 43 0 C37.80017278 15.71487556 32.53245037 31.39884575 27 47 C23.37 47 19.74 47 16 47 C13.71521236 40.7908921 11.43671513 34.57952664 9.1640625 28.3659668 C8.38975501 26.2517241 7.61372061 24.13811305 6.8359375 22.02514648 C5.71942747 18.99105897 4.60911112 15.95476747 3.5 12.91796875 C3.15001953 11.97100632 2.80003906 11.02404388 2.43945312 10.04838562 C1.95895508 8.72735588 1.95895508 8.72735588 1.46875 7.37963867 C1.18451172 6.60464523 0.90027344 5.82965179 0.60742188 5.03117371 C0 3 0 3 0 0 Z " fill="#342A81" transform="translate(485,451)"/>
<path d="M0 0 C5.02739561 2.42059789 6.93085507 4.89782506 9 10 C9.24678591 12.68863958 9.35296343 15.12781248 9.29296875 17.8046875 C9.28872391 18.5286673 9.28447906 19.25264709 9.28010559 19.99856567 C9.26342972 22.29110287 9.22580081 24.58273246 9.1875 26.875 C9.17243871 28.43748722 9.15875284 29.99998835 9.14648438 31.5625 C9.11356293 35.37534505 9.06186002 39.18751911 9 43 C7.35 43 5.7 43 4 43 C3.67 42.34 3.34 41.68 3 41 C2.34 41.495 1.68 41.99 1 42.5 C-3.11751444 44.55875722 -5.41253398 44.50971845 -10 44 C-13.38529307 41.59466018 -14.91549766 38.97650859 -16 35 C-16.50907191 28.5856939 -15.702713 24.64091592 -11.7734375 19.34765625 C-9.1798044 17.37672361 -7.14812657 17.67197748 -3.9375 17.75 C-2.87402344 17.76546875 -1.81054688 17.7809375 -0.71484375 17.796875 C2 18 2 18 4 19 C3.81068652 13.23073803 3.81068652 13.23073803 0.875 8.5 C-3.34356545 6.29900933 -6.85327828 6.55964683 -11.4375 7.5 C-11.953125 7.665 -12.46875 7.83 -13 8 C-13 6.02 -13 4.04 -13 2 C-8.6586504 -0.45551448 -4.89717776 -0.68016358 0 0 Z " fill="#362D80" transform="translate(496,387)"/>
<path d="M0 0 C3.32131375 1.6403223 5.41786699 3.88356181 7.14404297 7.1940918 C8.22305793 10.73120501 8.24957087 14.04850817 8.1953125 17.70703125 C8.1924826 18.43242599 8.18965271 19.15782074 8.18673706 19.90519714 C8.17559799 22.20780368 8.15050566 24.51001227 8.125 26.8125 C8.11496206 28.37955165 8.10583763 29.94660943 8.09765625 31.51367188 C8.0756793 35.34259978 8.04119339 39.17123256 8 43 C6.68 43 5.36 43 4 43 C4 41.68 4 40.36 4 39 C3.34 39 2.68 39 2 39 C1.67 39.99 1.34 40.98 1 42 C-1.98592368 44.26930199 -5.33646732 44.52987001 -9.03125 44.4609375 C-12.70958564 43.59973987 -13.98180704 41.05786812 -16 38 C-17.84330721 34.31338558 -17.35620938 30.03279906 -17 26 C-15.38926038 22.2147619 -13.47652035 20.15011276 -10 18 C-7.2734375 17.671875 -7.2734375 17.671875 -4.375 17.75 C-3.41335938 17.76546875 -2.45171875 17.7809375 -1.4609375 17.796875 C1 18 1 18 3 19 C2.81068652 13.23073803 2.81068652 13.23073803 -0.125 8.5 C-4.34356545 6.29900933 -7.85327828 6.55964683 -12.4375 7.5 C-12.953125 7.665 -13.46875 7.83 -14 8 C-14 6.02 -14 4.04 -14 2 C-9.43868921 -0.61697324 -5.14628288 -0.79548221 0 0 Z " fill="#362D80" transform="translate(599,387)"/>
<path d="M0 0 C3.11064862 2.0978793 4.1062943 3.42166999 5.6875 6.8125 C5.93939935 9.60867302 6.03881501 12.16940815 5.98046875 14.95703125 C5.97622391 15.72681808 5.97197906 16.49660492 5.96760559 17.28971863 C5.95088597 19.73517646 5.9132477 22.17979357 5.875 24.625 C5.85994441 26.28839951 5.84625754 27.95181201 5.83398438 29.61523438 C5.80100465 33.68131082 5.74927006 37.74676313 5.6875 41.8125 C4.3675 41.8125 3.0475 41.8125 1.6875 41.8125 C1.3575 40.8225 1.0275 39.8325 0.6875 38.8125 C0.254375 39.286875 -0.17875 39.76125 -0.625 40.25 C-3.74624734 43.14004383 -7.25996568 43.15421151 -11.37890625 43.09375 C-13.3125 42.8125 -13.3125 42.8125 -15.6875 41.125 C-19.31174786 35.96741651 -20.23266269 31.0345525 -19.3125 24.8125 C-17.57266146 21.62279602 -15.86554507 19.36554507 -13.3125 16.8125 C-10.5625 16.58203125 -10.5625 16.58203125 -7.3125 16.625 C-6.24 16.63144531 -5.1675 16.63789063 -4.0625 16.64453125 C-1.3125 16.8125 -1.3125 16.8125 0.6875 17.8125 C0.45919299 16.18431054 0.20406424 14.5598651 -0.0625 12.9375 C-0.20171875 12.03257812 -0.3409375 11.12765625 -0.484375 10.1953125 C-1.10064524 7.72799229 -1.10064524 7.72799229 -3.03125 6.46875 C-5.90178423 5.64297988 -8.10281502 5.83515655 -11.0625 6.1875 C-12.04734375 6.29835938 -13.0321875 6.40921875 -14.046875 6.5234375 C-14.79453125 6.61882812 -15.5421875 6.71421875 -16.3125 6.8125 C-16.3125 4.8325 -16.3125 2.8525 -16.3125 0.8125 C-10.79618431 -1.94565785 -5.69033934 -2.03993297 0 0 Z " fill="#372E80" transform="translate(280.3125,388.1875)"/>
<path d="M0 0 C4.199276 2.50341454 6.1442853 4.62617714 7.875 9.1875 C9 14 9 14 9 24 C2.07 24 -4.86 24 -12 24 C-10.64554894 32.13790616 -10.64554894 32.13790616 -8.5625 35.5625 C-4.32381893 37.9402967 0.2518266 37.4421963 5 37 C6.485 36.505 6.485 36.505 8 36 C8 37.98 8 39.96 8 42 C2.97440258 44.97457795 -2.33970655 44.82978124 -8 44 C-12.46954459 41.87462215 -14.54696576 38.80377043 -16.9375 34.5625 C-19.30335026 26.87348665 -19.38769004 17.33796119 -16.3125 9.875 C-12.48905548 2.663521 -8.23814963 -0.82381496 0 0 Z " fill="#3A327F" transform="translate(433,387)"/>
<path d="M0 0 C4.33459204 0.66257335 5.8746625 2.11830048 8.734375 5.41796875 C10.78837431 9.42257815 10.90590734 12.46388643 10.546875 16.91796875 C10.47082031 18.02140625 10.39476562 19.12484375 10.31640625 20.26171875 C9.52206724 24.56927527 8.02253306 27.1992964 4.8515625 30.19921875 C0.99953418 32.41662251 -2.97258148 32.14927585 -7.265625 31.41796875 C-11.1488611 29.4208759 -13.68737986 26.47021978 -15.265625 22.41796875 C-16.5848873 10.54460809 -16.5848873 10.54460809 -13.453125 5.79296875 C-12.73125 5.00921875 -12.009375 4.22546875 -11.265625 3.41796875 C-10.83507812 2.88429688 -10.40453125 2.350625 -9.9609375 1.80078125 C-6.9695749 -0.63917811 -3.70835529 -0.10300987 0 0 Z " fill="#CAE729" transform="translate(378.265625,458.58203125)"/>
<path d="M0 0 C13 0 13 0 16.75 2.375 C20.27646319 6.48920706 20.21248459 9.51659982 20.25 14.75 C20.270625 15.45382812 20.29125 16.15765625 20.3125 16.8828125 C20.34780709 21.63161547 19.70367834 24.93230375 17 29 C13 31 13 31 0 31 C0 20.77 0 10.54 0 0 Z " fill="#C8E52B" transform="translate(433,459)"/>
<path d="M0 0 C2.91261579 2.1689692 4.6199467 3.66109801 5.62280273 7.1940918 C6.09510464 10.70746771 6.12388278 14.17023593 6.09765625 17.70703125 C6.0962413 18.43242599 6.09482635 19.15782074 6.09336853 19.90519714 C6.08779931 22.2076745 6.07525261 24.51005235 6.0625 26.8125 C6.05748102 28.37955588 6.05291881 29.9466133 6.04882812 31.51367188 C6.03783998 35.34248589 6.02059673 39.17122611 6 43 C4.35 43 2.7 43 1 43 C0.98541748 42.05157227 0.97083496 41.10314453 0.95581055 40.12597656 C0.89467436 36.5995206 0.8205087 33.07383557 0.73754883 29.54785156 C0.7043412 28.0232166 0.67629622 26.49845994 0.65356445 24.97363281 C0.61994042 22.77877046 0.56762458 20.58501912 0.51171875 18.390625 C0.48553467 17.07094727 0.45935059 15.75126953 0.43237305 14.39160156 C-0.0135693 10.89356028 -0.49955303 9.43360222 -3 7 C-5.41263295 6.24914894 -5.41263295 6.24914894 -8 7 C-11.35241752 9.66262739 -12.83721374 11.1573807 -13.65942383 15.41333008 C-13.67513428 16.68587646 -13.69084473 17.95842285 -13.70703125 19.26953125 C-13.72215256 19.95053391 -13.73727386 20.63153656 -13.75285339 21.33317566 C-13.79560078 23.49329063 -13.80455435 25.65200493 -13.8125 27.8125 C-13.83565489 29.28324002 -13.86102231 30.75394698 -13.88867188 32.22460938 C-13.9513916 35.81637971 -13.98383125 39.40768404 -14 43 C-15.98 43 -17.96 43 -20 43 C-20 29.14 -20 15.28 -20 1 C-17.525 1.495 -17.525 1.495 -15 2 C-15 3.32 -15 4.64 -15 6 C-14.34 6 -13.68 6 -13 6 C-12.731875 5.38125 -12.46375 4.7625 -12.1875 4.125 C-9.50755268 -0.67069521 -4.97101701 -0.94962898 0 0 Z " fill="#3B347E" transform="translate(401,387)"/>
<path d="M0 0 C3.51267443 2.18566409 5.56795896 4.13596511 7 8 C7.1683504 10.71894955 7.23294575 13.33103955 7.1953125 16.046875 C7.1924826 16.81807678 7.18965271 17.58927856 7.18673706 18.3838501 C7.17557013 20.83939332 7.15047229 23.2945676 7.125 25.75 C7.11496568 27.41796347 7.10584061 29.08593268 7.09765625 30.75390625 C7.07564225 34.83607897 7.04113667 38.917977 7 43 C5.35 43 3.7 43 2 43 C1.98541748 42.05157227 1.97083496 41.10314453 1.95581055 40.12597656 C1.89467436 36.5995206 1.8205087 33.07383557 1.73754883 29.54785156 C1.7043412 28.0232166 1.67629622 26.49845994 1.65356445 24.97363281 C1.61994042 22.77877046 1.56762458 20.58501912 1.51171875 18.390625 C1.48553467 17.07094727 1.45935059 15.75126953 1.43237305 14.39160156 C0.9864307 10.89356028 0.50044697 9.43360222 -2 7 C-4.41263295 6.24914894 -4.41263295 6.24914894 -7 7 C-9.77122275 9.35426499 -9.77122275 9.35426499 -12 12 C-12.33 12.33 -12.66 12.66 -13 13 C-13.15873955 15.21687994 -13.25133837 17.43855298 -13.31640625 19.66015625 C-13.33718735 20.32462265 -13.35796844 20.98908905 -13.37937927 21.6736908 C-13.44493658 23.80318543 -13.50378785 25.93280668 -13.5625 28.0625 C-13.60567939 29.50326847 -13.64929349 30.94402399 -13.69335938 32.38476562 C-13.80062393 35.9230404 -13.90187371 39.46145869 -14 43 C-15.65 43 -17.3 43 -19 43 C-19 29.14 -19 15.28 -19 1 C-17.35 1 -15.7 1 -14 1 C-13.67 2.32 -13.34 3.64 -13 5 C-12.154375 4.175 -11.30875 3.35 -10.4375 2.5 C-6.96686757 -0.3730943 -4.51926522 -0.73951613 0 0 Z " fill="#39317F" transform="translate(315,387)"/>
<path d="M0 0 C3.15727309 1.10444534 4.42787518 2.87182845 6.0546875 5.71875 C7.26546451 9.35108102 7.17912914 12.66996987 7.15234375 16.44921875 C7.1509288 17.19963943 7.14951385 17.95006012 7.14805603 18.72322083 C7.1424631 21.1176046 7.12991194 23.51189453 7.1171875 25.90625 C7.11217158 27.53059761 7.10760884 29.15494668 7.10351562 30.77929688 C7.09249598 34.75915069 7.07523623 38.73893444 7.0546875 42.71875 C5.4046875 42.71875 3.7546875 42.71875 2.0546875 42.71875 C2.04010498 41.80585205 2.02552246 40.8929541 2.01049805 39.95239258 C1.94927955 36.55076389 1.87509877 33.14992319 1.79223633 29.7487793 C1.75907491 28.27948578 1.73101572 26.81006756 1.70825195 25.34057617 C1.67454231 23.22260632 1.62222317 21.10577005 1.56640625 18.98828125 C1.54022217 17.71573486 1.51403809 16.44318848 1.48706055 15.13208008 C1.03468468 11.56083956 0.13370088 9.61581521 -1.9453125 6.71875 C-7.0641093 6.98542804 -7.0641093 6.98542804 -11.14160156 9.82885742 C-13.3554957 13.37594254 -13.48385092 15.60788234 -13.5546875 19.76953125 C-13.57122375 20.42833786 -13.58776001 21.08714447 -13.60479736 21.76591492 C-13.65308806 23.85445651 -13.67460332 25.94227122 -13.6953125 28.03125 C-13.72348846 29.45381224 -13.75341818 30.8763409 -13.78515625 32.29882812 C-13.85883813 35.77197825 -13.90852965 39.24499072 -13.9453125 42.71875 C-15.5953125 42.71875 -17.2453125 42.71875 -18.9453125 42.71875 C-18.9453125 28.85875 -18.9453125 14.99875 -18.9453125 0.71875 C-17.6253125 0.71875 -16.3053125 0.71875 -14.9453125 0.71875 C-14.2853125 2.03875 -13.6253125 3.35875 -12.9453125 4.71875 C-12.1409375 3.873125 -11.3365625 3.0275 -10.5078125 2.15625 C-7.02564704 -0.74693308 -4.36693941 -0.76458198 0 0 Z " fill="#342A81" transform="translate(635.9453125,387.28125)"/>
<path d="M0 0 C4.22281728 1.11126771 5.3002758 2.28313784 7.5625 5.9375 C9.59468754 12.03406262 9.7134104 20.05229452 7.25 26.0625 C4.4877111 30.76862183 4.4877111 30.76862183 2.5625 31.9375 C-0.875 32.4375 -0.875 32.4375 -4.4375 31.9375 C-8.56003005 28.14922915 -10.13809144 23.89529369 -10.6953125 18.390625 C-10.95503613 12.12262815 -10.27323437 7.05608867 -6.4375 1.9375 C-3.4375 -0.0625 -3.4375 -0.0625 0 0 Z " fill="#C9E62A" transform="translate(666.4375,393.0625)"/>
<path d="M0 0 C4.46737173 0.91170852 5.47757304 2.9322472 8.0625 6.625 C9.61161821 9.72323641 9.28814397 12.97733391 9.3125 16.375 C9.333125 17.07882812 9.35375 17.78265625 9.375 18.5078125 C9.41041884 23.27164585 8.70097695 26.50700326 6.0625 30.625 C2.32994552 33.11336965 0.47809065 33.16726552 -3.9375 32.625 C-8.67392572 27.88857428 -9.11926432 24.25367259 -9.125 17.8125 C-9.13724609 17.10029297 -9.14949219 16.38808594 -9.16210938 15.65429688 C-9.17711097 10.24872273 -8.44711281 6.6198455 -5.1875 2.3125 C-2.9375 0.625 -2.9375 0.625 0 0 Z " fill="#CAE72A" transform="translate(344.9375,392.375)"/>
<path d="M0 0 C2.31 0 4.62 0 7 0 C7 21.45 7 42.9 7 65 C4.69 65 2.38 65 0 65 C0 43.55 0 22.1 0 0 Z " fill="#312681" transform="translate(450,366)"/>
<path d="M0 0 C1.98 0 3.96 0 6 0 C6 21.45 6 42.9 6 65 C4.02 65 2.04 65 0 65 C0 43.55 0 22.1 0 0 Z " fill="#312681" transform="translate(466,366)"/>
<path d="M0 0 C0.33 1.32 0.66 2.64 1 4 C1.928125 3.95875 2.85625 3.9175 3.8125 3.875 C7 4 7 4 10 6 C10.57400036 9.11600195 10.27931609 10.5429373 8.625 13.25 C4.68535035 15.8764331 0.64645355 15.82265444 -4 16 C-4 16.66 -4 17.32 -4 18 C-4.99 18.33 -5.98 18.66 -7 19 C-9.13619737 12.79485526 -10.36517527 7.57315478 -10 1 C-6.42181037 -1.33958553 -4.07775191 -0.9267618 0 0 Z " fill="#FDFEF9" transform="translate(601,117)"/>
<path d="M0 0 C1.56918492 1.56918492 1.28258943 3.14085159 1.375 5.3125 C1.32935343 8.89575584 1.25116818 9.69712073 -1.125 12.5625 C-4.4474367 14.22371835 -6.33528126 14.55767459 -10 14 C-12.13375162 12.39085871 -12.90232856 11.48571742 -13.43359375 8.84375 C-13.44390632 2.65620934 -13.44390632 2.65620934 -11.5625 -0.125 C-7.65870839 -1.45800201 -3.98839114 -0.87372463 0 0 Z " fill="#C8E42B" transform="translate(601,411)"/>
<path d="M0 0 C0.77641328 9.04090125 0.77641328 9.04090125 -2.125 12.625 C-5.44127052 14.21104242 -7.37063217 14.55229511 -11 14 C-12.875 13 -12.875 13 -14 11 C-14.47964693 6.6831776 -14.67301802 4.25426085 -12.625 0.4375 C-8.47770395 -1.83363831 -4.52958594 -0.79527081 0 0 Z " fill="#C7E42C" transform="translate(281,411)"/>
<path d="M0 0 C1.56918492 1.56918492 1.28258943 3.14085159 1.375 5.3125 C1.32935343 8.89575584 1.25116818 9.69712073 -1.125 12.5625 C-4.4474367 14.22371835 -6.33528126 14.55767459 -10 14 C-12.13375162 12.39085871 -12.90232856 11.48571742 -13.43359375 8.84375 C-13.44390632 2.65620934 -13.44390632 2.65620934 -11.5625 -0.125 C-7.65870839 -1.45800201 -3.98839114 -0.87372463 0 0 Z " fill="#C7E42C" transform="translate(499,411)"/>
<path d="M0 0 C3.3376405 1.23347584 4.3564082 1.85658397 5.875 5.0625 C5.875 7.3725 5.875 9.6825 5.875 12.0625 C0.925 12.0625 -4.025 12.0625 -9.125 12.0625 C-8.125 5.0625 -8.125 5.0625 -5.9375 2.0625 C-3.125 0.0625 -3.125 0.0625 0 0 Z " fill="#C5E22E" transform="translate(430.125,392.9375)"/>
<path d="M0 0 C3.3 0 6.6 0 10 0 C10 3.3 10 6.6 10 10 C6.7 10 3.4 10 0 10 C0 6.7 0 3.4 0 0 Z " fill="#312682" transform="translate(526,488)"/>
<path d="M0 0 C3.3 0 6.6 0 10 0 C10 3.3 10 6.6 10 10 C6.7 10 3.4 10 0 10 C0 6.7 0 3.4 0 0 Z " fill="#312681" transform="translate(471,488)"/>
<path d="M0 0 C3.3 0 6.6 0 10 0 C10 3.3 10 6.6 10 10 C6.7 10 3.4 10 0 10 C0 6.7 0 3.4 0 0 Z " fill="#302582" transform="translate(405,488)"/>
</svg>
